# xmcd CD database file
#
# Track frame offsets:
#	150
#	16452
#	32965
#	43485
#	56560
#	68055
#	84585
#	95970
#	111465
#	127082
#
# Disc length: 1898 seconds
#
# Revision: 1
# Processed by: cddbd v1.4PL0 Copyright (c) Steve Scherf et al.
# Submitted via: CDex 1.50Beta7
#
DISCID=9807680a
DTITLE=Herbie - Von Kultur Keine Spur
DYEAR=1900
DGENRE=Blues
TTITLE0=Mensch, Wie Krieg Ich Meinen Bauch Nur Weg
TTITLE1=Fritz Vampier
TTITLE2=Resozialisiert
TTITLE3=Morgens Des Uffsteh
TTITLE4=Arbeitsamt
TTITLE5=Arbeit Ist Scheisse
TTITLE6=Führerschein
TTITLE7=Du Bist Die Frau Die Ich Gesucht Hab
TTITLE8=Ich Hab Durchfall
TTITLE9=Von Kultur Keine Spur
EXTD=
EXTT0=
EXTT1=
EXTT2=
EXTT3=
EXTT4=
EXTT5=
EXTT6=
EXTT7=
EXTT8=
EXTT9=
PLAYORDER=
